<?xml version="1.0" standalone="no"?>
<!DOCTYPE svg PUBLIC "-//W3C//DTD SVG 20010904//EN"
 "http://www.w3.org/TR/2001/REC-SVG-20010904/DTD/svg10.dtd">
<svg version="1.0" xmlns="http://www.w3.org/2000/svg"
 width="512.000000pt" height="512.000000pt" viewBox="0 0 512.000000 512.000000"
 preserveAspectRatio="xMidYMid meet">
<metadata>
Created by potrace 1.11, written by Peter Selinger 2001-2013
</metadata>
<g transform="translate(0.000000,512.000000) scale(0.100000,-0.100000)"
fill="#000000" stroke="none">
<path d="M0 2560 l0 -2560 2560 0 2560 0 0 2560 0 2560 -2560 0 -2560 0 0
-2560z m3235 1764 l40 -35 9 -765 c7 -605 6 -770 -4 -794 -9 -22 -77 -78 -249
-203 -130 -96 -246 -180 -257 -187 -18 -11 -37 -10 -120 6 l-99 20 141 104
c78 58 199 147 269 198 106 78 125 96 114 107 -8 7 -182 152 -387 324 l-373
311 -69 -60 c-39 -33 -81 -62 -95 -66 -13 -3 -64 -4 -113 -3 l-89 4 -71 58
-72 59 -34 -29 c-18 -15 -189 -165 -379 -332 l-346 -305 32 -22 c18 -12 237
-164 487 -338 l454 -316 56 0 c55 0 59 2 179 91 68 50 127 87 131 82 4 -4 21
-34 39 -65 l32 -57 -93 -69 c-192 -141 -178 -134 -287 -136 l-96 -1 -150 103
c-577 394 -951 660 -966 687 -16 27 -18 103 -28 795 l-11 765 39 39 39 39 899
12 c494 7 1008 12 1143 13 l245 1 40 -35z m344 -1934 c261 -63 469 -231 576
-464 97 -211 84 -477 -32 -675 -78 -132 -250 -285 -390 -347 -130 -58 -328
-89 -466 -74 -99 11 -272 70 -344 116 -191 122 -321 307 -359 509 -22 120 -15
343 15 464 l21 84 -34 61 c-20 33 -62 106 -95 161 -32 55 -58 101 -57 102 0 1
78 -14 171 -33 94 -19 187 -35 207 -36 25 0 75 17 155 55 227 106 414 129 632
77z"/>
<path d="M2714 3879 c-230 -205 -420 -373 -422 -374 -2 -2 195 -168 437 -369
243 -202 441 -370 440 -374 0 -4 -99 -83 -219 -175 -153 -118 -217 -173 -213
-183 3 -8 10 -13 16 -11 16 5 476 361 477 369 0 4 -199 172 -441 373 -426 354
-441 368 -423 385 11 9 183 162 384 340 454 401 414 364 397 378 -11 10 -92
-57 -433 -359z"/>
<path d="M1695 4189 c-231 -3 -454 -7 -495 -8 -74 -1 -74 -1 -55 -21 11 -10
211 -179 445 -374 l425 -356 48 0 48 0 417 366 c229 202 426 375 437 385 19
19 9 19 -415 17 -239 -1 -624 -5 -855 -9z"/>
<path d="M2780 3815 c-184 -161 -335 -297 -337 -302 -2 -8 687 -586 693 -581
4 5 -13 1168 -18 1173 -2 2 -154 -128 -338 -290z"/>
<path d="M991 3808 c1 -150 4 -416 8 -591 l6 -318 343 302 c189 166 339 305
335 309 -98 84 -684 570 -688 570 -3 0 -4 -123 -4 -272z"/>
<path d="M3663 2174 c-107 -53 -91 -222 24 -253 147 -41 227 178 92 251 -41
22 -74 23 -116 2z m81 -90 c31 -30 13 -74 -30 -74 -35 0 -48 61 -16 79 23 14
28 14 46 -5z"/>
<path d="M2902 2140 c-78 -48 -81 -160 -6 -219 l27 -21 2 -243 c2 -202 6 -258
24 -337 40 -183 126 -306 244 -347 75 -26 230 -23 316 6 204 70 276 230 215
476 -14 55 -27 101 -28 102 -2 2 -54 -125 -82 -200 -6 -15 -3 -17 20 -11 25 6
26 5 26 -41 0 -97 -50 -184 -129 -224 -54 -28 -152 -44 -229 -39 -112 8 -179
56 -228 163 -44 96 -55 174 -61 441 l-5 250 26 18 c35 22 66 74 66 109 0 74
-60 137 -130 137 -19 0 -50 -9 -68 -20z m92 -73 c39 -29 -1 -106 -41 -81 -25
16 -29 65 -7 81 10 7 21 13 24 13 3 0 14 -6 24 -13z"/>
</g>
</svg>
